{"title":"Anne-Sophie Mutter - My Mozart - 2006","uid":6518647,"size":2198680460,"categoryP":"video","categoryS":"tv_shows","magnet":"?xt=urn:btih:d1f09ee528ea295efbb00f34dd3c1708b69855e5&amp;dn=Anne-Sophie+Mutter+-+My+Mozart+-+2006&amp;tr=udp%3A%2F%2Ftracker.openbittorrent.com%3A80&amp;tr=udp%3A%2F%2Fopen.demonii.com%3A1337&amp;tr=udp%3A%2F%2Ftracker.coppersurfer.tk%3A6969&amp;tr=udp%3A%2F%2Fexodus.desync.com%3A6969","seeders":1,"leechers":2,"uploader":"rodneicm","files":7,"time":1309920470,"description":"DW-tv show In Focus in 6 parts commenting violin works of Mozart and playing sonatas with Camerata Salzsburg.\n\nGeneral\nComplete name                    : Mutter-My Mozart.avi\nFormat                           : AVI\nFormat/Info                      : Audio Video Interleave\nFile size                        : 349 MiB\nDuration                         : 26mn 14s\nOverall bit rate                 : 1 861 Kbps\nWriting application              : VirtualDubMod 1.5.4.1 (build 2178/release)\nWriting library                  : VirtualDubMod build 2178/release\n\nVideo\nID                               : 0\nFormat                           : MPEG-4 Visual\nFormat profile                   : Simple@L3\nFormat settings, BVOP            : Yes\nFormat settings, QPel            : No\nFormat settings, GMC             : No warppoints\nFormat settings, Matrix          : Custom\nCodec ID                         : XVID\nCodec ID/Hint                    : XviD\nDuration                         : 26mn 14s\nBit rate                         : 1 771 Kbps\nWidth                            : 688 pixels\nHeight                           : 416 pixels\nDisplay aspect ratio             : 1.654\nFrame rate                       : 25.000 fps\nColor space                      : YUV\nChroma subsampling               : 4:2:0\nBit depth                        : 8 bits\nScan type                        : Progressive\nCompression mode                 : Lossy\nBits/(Pixel*Frame)               : 0.248\nStream size                      : 333 MiB (95%)\nWriting library                  : XviD 1.0.1 (UTC 2004-06-05)\n\nAudio\nID                               : 1\nFormat                           : MPEG Audio\nFormat version                   : Version 1\nFormat profile                   : Layer 3\nMode                             : Joint stereo\nMode extension                   : MS Stereo\nCodec ID                         : 55\nCodec ID/Hint                    : MP3\nDuration                         : 26mn 14s\nBit rate mode                    : Variable\nBit rate                         : 79.6 Kbps\nNominal bit rate                 : 96.0 Kbps\nChannel(s)                       : 2 channels\nSampling rate                    : 32.0 KHz\nCompression mode                 : Lossy\nStream size                      : 14.9 MiB (4%)\nAlignment                        : Aligned on interleaves\nInterleave, duration             : 36 ms (0.90 video frame)\nInterleave, preload duration     : 600 ms\nWriting library                  : LAME3.97b\nEncoding settings                : -m j -V 4 -q 2 -lowpass 15.1 --abr 96\n\n","torrent":{"xt":"urn:btih:d1f09ee528ea295efbb00f34dd3c1708b69855e5","amp;dn":"Anne-Sophie+Mutter+-+My+Mozart+-+2006","amp;tr":["udp%3A%2F%2Ftracker.openbittorrent.com%3A80","udp%3A%2F%2Fopen.demonii.com%3A1337","udp%3A%2F%2Ftracker.coppersurfer.tk%3A6969","udp%3A%2F%2Fexodus.desync.com%3A6969"],"infoHash":"d1f09ee528ea295efbb00f34dd3c1708b69855e5","infoHashBuffer":{"type":"Buffer","data":[209,240,158,229,40,234,41,94,251,176,15,52,221,60,23,8,182,152,85,229]},"announce":[],"urlList":[]}}